<svg xmlns="http://www.w3.org/2000/svg" width="261.536" height="99.171" viewBox="0 0 261.536 99.171">
  <g id="infotanger1" transform="translate(-4.824 -15.852)">
    <g id="Groupe_2047" data-name="Groupe 2047">
      <g id="Groupe_2048" data-name="Groupe 2048">
        <path id="Tracé_4533" data-name="Tracé 4533" d="M5.229,0H15.435V-44.1H5.229ZM54.306-44.1v26.775L32.382-44.1H23.94V0H34.02V-26.775L56.007,0h8.379V-44.1Zm51.912,8.19V-44.1H72.891V0H83.1V-16.065h20.412v-8.19H83.1V-35.91ZM132.111.756c13.86,0,24.129-9.639,24.129-22.806s-10.269-22.806-24.129-22.806c-13.923,0-24.129,9.7-24.129,22.806S118.188.756,132.111.756Zm0-8.694c-7.875,0-13.8-5.733-13.8-14.112s5.922-14.112,13.8-14.112,13.8,5.733,13.8,14.112S139.986-7.938,132.111-7.938Z" transform="translate(-0.405 60.708)" fill="#ff7d51"/>
        <ellipse id="Ellipse_5" data-name="Ellipse 5" cx="20.5" cy="20" rx="20.5" ry="20" transform="translate(107.595 16.708)" fill="#ff7d51"/>
        <path id="Tracé_4532" data-name="Tracé 4532" d="M16.128,51h3.213V9.8H35.217V6.9H.252V9.8H16.128ZM73.9,51h3.465L57.078,6.9H53.865L33.579,51h3.465l5.607-12.411H68.229ZM43.911,35.88,55.44,10.428,67.032,35.88ZM118.062,6.9V45.2L88.074,6.9H85.365V51h3.213V12.7L118.629,51h2.646V6.9Zm50.085,37.422a19.307,19.307,0,0,1-12.537,4.032c-11.466,0-19.971-8.379-19.971-19.4,0-11.088,8.505-19.4,19.971-19.4,5.355,0,9.954,1.449,13.8,5.229l2.016-2.142c-3.906-4.032-9.513-6.048-15.876-6.048-13.356,0-23.121,9.513-23.121,22.365s9.765,22.365,23.058,22.365c6.048,0,11.781-1.89,15.75-5.67V29.139h-3.087Zm20.412,3.78V30.021h23.5V27.186h-23.5V9.8H214.83V6.9H185.346V51h30.429V48.1ZM261.765,51,250.74,35.565c6.552-1.953,10.332-6.8,10.332-13.8,0-9.324-6.678-14.868-17.766-14.868H227.493V51h3.213V36.573h12.6a31.131,31.131,0,0,0,4.284-.315L258.111,51ZM230.706,33.738V9.8h12.6c9.45,0,14.49,4.347,14.49,11.97,0,7.56-5.04,11.97-14.49,11.97Z" transform="translate(4.595 63.708)" fill="#33babd"/>
      </g>
    </g>
    <g id="Groupe_2034" data-name="Groupe 2034" transform="translate(107.489 27.094)">
      <path id="Tracé_2006" data-name="Tracé 2006" d="M1195.727-1197.961l5.9,1.1,12.585,4.075,9.69-1.469-9.69-15.814-12.585,1.33Z" transform="translate(-1185.522 1210.068)" fill="#fff"/>
      <path id="Tracé_2011" data-name="Tracé 2011" d="M407.037,169.2a29.617,29.617,0,0,0-7.594-.186c-1.374.146-2.144.272-2.148.273a57.761,57.761,0,0,1,8.287,2.012c4.783,1.377,9.4,3.282,14.2,4.6a40.586,40.586,0,0,0,7.459,1.382,27.961,27.961,0,0,0,16.442-4.2c1.172-.712,1.825-1.159,1.825-1.159s-.775.156-2.1.5c-1.8.463-3.613.8-5.422,1.215-6.4,1.452-13.09.026-19.291-1.674A95.612,95.612,0,0,0,407.037,169.2Z" transform="translate(-397.295 -158.525)" fill="#33babd"/>
    </g>
  </g>
</svg>
