<svg xmlns="http://www.w3.org/2000/svg" width="49.649" height="45.612" viewBox="0 0 49.649 45.612">
  <g id="fav-icon-infotanger" transform="translate(-106.052 -15.852)">
    <g id="Groupe_2047" data-name="Groupe 2047">
      <path id="Tracé_4531" data-name="Tracé 4531" d="M26.586.756c13.86,0,24.129-9.639,24.129-22.806S40.446-44.856,26.586-44.856c-13.923,0-24.129,9.7-24.129,22.806S12.663.756,26.586.756Zm0-8.694c-7.875,0-13.8-5.733-13.8-14.112s5.922-14.112,13.8-14.112,13.8,5.733,13.8,14.112S34.461-7.938,26.586-7.938Z" transform="translate(103.595 60.708)" fill="#ff7d51"/>
      <ellipse id="Ellipse_5" data-name="Ellipse 5" cx="20.5" cy="20" rx="20.5" ry="20" transform="translate(107.595 16.708)" fill="#ff7d51"/>
    </g>
    <g id="Groupe_2034" data-name="Groupe 2034" transform="translate(107.489 27.094)">
      <path id="Tracé_2006" data-name="Tracé 2006" d="M1195.727-1197.961l5.9,1.1,12.585,4.075,9.69-1.469-9.69-15.814-12.585,1.33Z" transform="translate(-1185.522 1210.068)" fill="#fff"/>
      <path id="Tracé_2011" data-name="Tracé 2011" d="M407.037,169.2a29.617,29.617,0,0,0-7.594-.186c-1.374.146-2.144.272-2.148.273a57.761,57.761,0,0,1,8.287,2.012c4.783,1.377,9.4,3.282,14.2,4.6a40.586,40.586,0,0,0,7.459,1.382,27.961,27.961,0,0,0,16.442-4.2c1.172-.712,1.825-1.159,1.825-1.159s-.775.156-2.1.5c-1.8.463-3.613.8-5.422,1.215-6.4,1.452-13.09.026-19.291-1.674A95.612,95.612,0,0,0,407.037,169.2Z" transform="translate(-397.295 -158.525)" fill="#33babd"/>
    </g>
  </g>
</svg>
