<svg xmlns="http://www.w3.org/2000/svg" width="266" height="128" viewBox="0 0 266 128">
  <g id="INFOTANGER" transform="translate(0.405 0.292)">
    <g id="Groupe_2047" data-name="Groupe 2047">
      <text id="INFO_TANGER" data-name="INFO 
TANGER" transform="translate(-0.405 60.708)" fill="#ff7d51" font-size="63" font-family="Montserrat-Bold, Montserrat" font-weight="700"><tspan letter-spacing="-0.031em"><tspan x="0" y="0">INFO</tspan><tspan y="0" fill="#8fd9d9"> </tspan></tspan><tspan fill="#33babd" font-family="Montserrat-Light, Montserrat" font-weight="300"><tspan x="0" y="51">TANGER</tspan></tspan></text>
      <ellipse id="Ellipse_5" data-name="Ellipse 5" cx="20.5" cy="20" rx="20.5" ry="20" transform="translate(107.595 16.708)" fill="#ff7d51"/>
    </g>
    <g id="Groupe_2034" data-name="Groupe 2034" transform="translate(107.489 27.094)">
      <path id="Tracé_2006" data-name="Tracé 2006" d="M1195.727-1197.961l5.9,1.1,12.585,4.075,9.69-1.469-9.69-15.814-12.585,1.33Z" transform="translate(-1185.522 1210.068)" fill="#fff"/>
      <path id="Tracé_2011" data-name="Tracé 2011" d="M407.037,169.2a29.617,29.617,0,0,0-7.594-.186c-1.374.146-2.144.272-2.148.273a57.761,57.761,0,0,1,8.287,2.012c4.783,1.377,9.4,3.282,14.2,4.6a40.586,40.586,0,0,0,7.459,1.382,27.961,27.961,0,0,0,16.442-4.2c1.172-.712,1.825-1.159,1.825-1.159s-.775.156-2.1.5c-1.8.463-3.613.8-5.422,1.215-6.4,1.452-13.09.026-19.291-1.674A95.612,95.612,0,0,0,407.037,169.2Z" transform="translate(-397.295 -158.525)" fill="#33babd"/>
    </g>
  </g>
</svg>
